# xmcd
#
# Track frame offsets:
#	150
#	42207
#	82980
#	103472
#	153502
#	191905
#	220775
#	253855
#
# Disc length: 3996 seconds
#
# Revision: 1
# Processed by: cddbd v1.4PL0 Copyright (c) Steve Scherf et al.
# Submitted via: audiograbber 1.80.04
#
DISCID=6f0f9a08
DTITLE=Various Artist - Giants of the Blues Tenor Sax -- Giants of the Funk Tenor Sax
DYEAR=1900
DGENRE=Blues
TTITLE0=Illinois Jacquet, Frank Foster - The Soul Explosion
TTITLE1=Jimmy Forrest, King Curtis, Oliver Nelson - Soul Street
TTITLE2=Al Sears - Record Hop
TTITLE3=Hal Singer - Midnight
TTITLE4=Gene Ammons - Hittin' the Jug
TTITLE5=Sonny Sitt - Nother Fu'ther
TTITLE6=Rusty Bryant, Seldon Powell - Red-Eye Special
TTITLE7=Willis Jackson - This'll Get to Ya
EXTD=Prestige\nAAD
EXTT0=
EXTT1=
EXTT2=
EXTT3=
EXTT4=
EXTT5=
EXTT6=
EXTT7=
PLAYORDER=
